<?xml version="1.0" standalone="no"?><!DOCTYPE svg PUBLIC "-//W3C//DTD SVG 1.1//EN" "http://www.w3.org/Graphics/SVG/1.1/DTD/svg11.dtd"><svg t="1584458325750" class="icon" viewBox="0 0 1024 1024" version="1.1" xmlns="http://www.w3.org/2000/svg" p-id="5433" width="128" height="128" xmlns:xlink="http://www.w3.org/1999/xlink"><defs><style type="text/css"></style></defs><path d="M880.128 476.16H141.824c-7.68-0.512-13.824-7.168-13.824-14.848s6.144-14.336 13.824-14.848H849.92l-38.4-48.64c-4.608-6.656-3.072-15.872 3.072-20.48 6.144-4.608 14.848-3.584 20.48 2.048 19.456 24.576 38.912 49.152 57.856 73.728 3.584 5.12 3.584 12.288 0 17.408-4.096 5.632-12.288 5.632-12.8 5.632z" fill="#333333" p-id="5434"></path><path d="M786.432 336.896c-5.632 4.608-15.36 4.096-21.504-3.584l-30.208-37.888c-3.584-6.656-1.536-14.848 4.096-19.456 5.632-4.096 13.312-3.584 18.432 1.024 7.68 9.216 14.848 18.944 22.528 28.16 3.072 3.584 5.632 7.168 8.704 10.752 5.12 7.68 3.584 16.384-2.048 20.992z" fill="#CC3333" p-id="5435"></path><path d="M272.896 604.16c6.656-11.264 14.336-19.456 23.552-24.064 8.192-5.12 17.92-7.68 29.696-7.68 17.408 0 31.744 5.632 42.496 16.384 10.24 11.264 15.872 26.624 15.872 46.08v110.08H358.4v-105.984c0-14.848-3.072-26.112-9.216-33.28-6.656-7.68-16.896-11.264-31.232-11.264-11.264 0-20.48 4.096-27.648 12.288-7.68 8.704-11.264 18.944-11.264 32.768v105.472h-26.112v-105.984c0-29.696-12.8-44.544-38.912-44.544-11.776 0-22.016 4.608-29.696 14.336-7.68 9.216-11.776 20.48-11.776 33.792v102.4h-26.112v-167.936h26.112v22.528c12.8-18.432 28.672-27.136 47.616-27.136 26.112 0 43.52 10.24 52.736 31.744zM560.128 598.528c14.336 16.384 21.504 37.376 21.504 62.976 0 25.088-7.168 45.568-20.992 61.952-15.36 17.408-35.328 26.624-60.416 26.624-25.6 0-45.056-8.704-59.904-26.624-14.336-16.384-21.504-36.864-21.504-61.952 0-25.6 7.168-46.08 21.504-62.976 14.848-17.408 34.816-26.112 59.904-26.112 25.088 0 45.056 8.704 59.904 26.112z m-101.888 16.384c-9.216 12.288-13.312 27.648-13.312 46.592 0 18.432 4.096 33.792 13.312 46.08 9.728 13.824 23.552 20.48 41.472 20.48 17.408 0 31.744-6.656 41.984-20.48 8.704-12.288 13.312-28.16 13.312-46.08 0-18.944-4.608-34.304-13.312-46.592-10.24-13.824-24.576-20.48-41.984-20.48-17.408 0-31.744 6.656-41.472 20.48zM712.704 576.512v26.112c-8.192-2.56-16.896-3.584-25.088-3.584-12.8 0-24.064 5.632-32.768 17.408-9.216 11.264-13.312 24.576-13.312 39.936v89.088h-25.6v-167.936h25.6v29.184c4.608-9.728 10.24-17.408 17.408-23.04 8.704-7.168 18.944-10.752 30.72-10.752 8.704-0.512 16.896 1.024 23.04 3.584zM864.768 599.552c12.288 16.384 18.944 39.424 19.456 68.608h-132.608c1.536 18.944 6.144 33.28 15.36 44.032 9.216 10.24 22.016 15.872 37.888 15.872 13.824 0 25.088-3.584 33.28-10.24 7.168-5.632 12.8-14.848 16.896-26.624h26.112c-4.096 16.384-11.264 29.184-22.528 39.936-13.824 12.288-31.744 18.944-53.76 18.944-24.064 0-43.52-8.192-57.856-23.552-14.848-16.384-22.016-37.888-22.016-65.024 0-24.576 6.656-45.568 20.992-61.952 14.336-17.408 33.28-26.112 57.856-26.112 26.624-1.024 47.104 8.192 60.928 26.112z m-96.768 9.216c-9.216 9.728-14.336 22.528-15.872 39.424h104.96c-3.072-35.84-20.992-53.76-53.248-53.76-14.336 0-26.624 4.608-35.84 14.336z" fill="#333333" p-id="5436"></path></svg>